# xmcd
#
# Track frame offsets: 
#        150
#        21286
#        38687
#        65202
#        100595
#        111532
#        131061
#        154006
#        180112
#        191137
#        213436
#        233538
#        244124
#        257682
#        278090
#        291010
#        319364
#        333867
#
# Disc length: 4520 seconds
#
# Revision: 0
# Processed by: cddbd v1.4PL0 Copyright (c) Steve Scherf et al.
# Submitted via: ExactAudioCopy v0.90b4
#
DISCID=0311a612
DTITLE=Van Morrison - The Genuine Philosophers Stone, disc 2
DYEAR=1975
DGENRE=Celtic
TTITLE0=Caravan
TTITLE1=Everyone
TTITLE2=Brand New Day
TTITLE3=Come Running
TTITLE4=These Dreams Of You
TTITLE5=And It Stoned Me
TTITLE6=You Set My Soul On Fire
TTITLE7=Come Running (fast version)
TTITLE8=Standing On A Corner
TTITLE9=Bit By Bit
TTITLE10=If I Ever Needed Someone
TTITLE11=If You Rock Me
TTITLE12=If I Had A Rainbow
TTITLE13=Domino (with flute)
TTITLE14=Hey, Where Are You ?
TTITLE15=Lorna > By The River
TTITLE16=On A Rainy Afternoon
TTITLE17=I Can't Get It Straight
EXTD=
EXTT0=
EXTT1=
EXTT2=
EXTT3=
EXTT4=
EXTT5=
EXTT6=
EXTT7=
EXTT8=
EXTT9=
EXTT10=
EXTT11=
EXTT12=
EXTT13=
EXTT14=
EXTT15=
EXTT16=
EXTT17=
PLAYORDER=
